<?xml version="1.0" encoding="utf-8"?>
<!-- Generator: Adobe Illustrator 21.1.0, SVG Export Plug-In . SVG Version: 6.00 Build 0)  -->
<svg version="1.1" id="Layer_1" xmlns="http://www.w3.org/2000/svg" xmlns:xlink="http://www.w3.org/1999/xlink" x="0px" y="0px"
	 viewBox="0 0 612 792" style="enable-background:new 0 0 612 792;" xml:space="preserve">
<style type="text/css">
	.st0{fill:#FFFFFF;stroke:#000000;stroke-miterlimit:10;}
</style>
<path class="st0" d="M48.8,5c0-0.4-0.3-0.9-4.3-1.9c-4.8-1.3-8.6-1.8-9.6-1.8c-3.8-0.3-6.9-0.7-11.2-0.6c-2.3,0.1-5.9,0.1-10.6,1
	C10.6,2.2,8,2.9,3,4.4C1.9,4.7,0.2,5.2,0.2,6C0.1,6.5,1.6,7,2.6,7.4c5.6,1.7,8.3,2.6,8.8,2.7c4.2,0.7,7.7,0.6,10.2,0.5
	c0,0,0.2,0,0.5,0c2.6-0.1,5.7-0.4,11.3-1.3c0.4-0.1,4.5-0.8,10-2.2C47.4,6.1,48.8,5.6,48.8,5z"/>
<path class="st0" d="M686.1,298.8"/>
</svg>
