<?xml version="1.0" encoding="utf-8"?>
<!-- Generator: Adobe Illustrator 21.1.0, SVG Export Plug-In . SVG Version: 6.00 Build 0)  -->
<svg version="1.1" id="Layer_1" xmlns="http://www.w3.org/2000/svg" xmlns:xlink="http://www.w3.org/1999/xlink" x="0px" y="0px"
	 viewBox="0 0 612 792" style="enable-background:new 0 0 612 792;" xml:space="preserve">
<style type="text/css">
	.st0{fill:#FFFFFF;stroke:#000000;stroke-miterlimit:10;}
</style>
<path class="st0" d="M36.6,3.8c2.5,0.9,7.4,2.5,7,3.5C43.4,8,39.4,7.5,27.5,8.4C27,8.5,18.3,9.1,12.6,8.3c-2-0.3-3.6-0.8-4.5-1
	C6.4,6.7,5.3,6.1,4.3,5.6C1.5,4.1,0.1,3.4,0.2,2.8c0.2-1.3,6.9-1.9,9.4-2.1c1.7-0.1,4.7-0.3,8.7-0.1c6.1,0.3,10.5,1.2,12.1,1.5
	C32.9,2.6,34.9,3.2,36.6,3.8z"/>
</svg>
